<?xml version='1.0' encoding='utf-8'?>
<svg xmlns="http://www.w3.org/2000/svg" viewBox="0 0 1024 1024"> <path d="m0 0v1024h1024v-1024h-1024z" fill="#fff"/> <path d="m137.03 44.483c4.808-4.3949 12.003-7.9756 17.801-10.861 27.494-13.681 57.381-19.356 87.982-18.075 45.709 1.913 88.912 19.252 127.15 43.525 27.892 17.706 52.836 38.478 75.086 62.937 15.923 17.505 30.126 36.719 41.927 57.218l0.652-0.217c13.042-4.257 26.856-4.96 40.272-2.253 2.217 0.447 7.469 2.718 9.343 2.345 0.177-0.035 8.263-13.204 9.113-14.517 15.739-24.299 35.631-47.237 56.884-66.804 46.297-42.625 104.02-74.538 167.25-81.242 34.108-3.6162 68.768 1.2176 99.514 16.975l15.833 8.6748c1.519 0.8867 4.678 2.3736 5.631 3.811-1.575-0.3265-3.33-1.4627-4.785-2.1959l-8.781-4.2538c-6.134-2.8172-12.488-5.2706-18.918-7.324-38.196-12.197-81.325-10.617-119.78-0.2415-69.349 18.711-129.55 65.321-171.49 122.83-7.14 9.791-14.171 19.702-20.215 30.22 2.715 1.827 5.398 3.686 7.362 6.356 1.633 2.22 3.017 5.24 2.44 8.063-0.435 2.125-1.35 3.588-3.197 4.738-1.108 0.69-3.672 1.643-4.959 1.154-1.818-0.692-3.896-3.404-5.297-4.816-6.754-6.803-14.141-11.326-23.59-13.282-3.892-0.806-7.965-0.905-11.93-0.701-9.037 0.465-18.779 5.082-25.404 11.14-2.152 1.967-3.811 4.312-5.854 6.351-1.097 1.094-1.924 1.767-3.567 1.563-1.684-0.21-3.557-1.6-4.608-2.874-1.51-1.831-1.725-4.201-1.436-6.479 0.621-4.893 5.201-8.805 8.909-11.607-7.065-11.228-13.941-22.614-21.901-33.244-32.079-42.837-75.833-80.449-124.68-102.84-49.335-22.616-104.86-33.418-158.07-18.099-7.345 2.1147-14.587 4.6055-21.547 7.7793-4.243 1.935-8.353 4.5312-12.724 6.1056l-0.412 0.1421z"/> <path d="m137.03 44.483-0.977 0.5622 0.977-0.5622z"/> <path d="m136.05 45.046-0.556 0.4391 0.556-0.4391z"/> <path d="m135.5 45.485-0.954 0.5556 0.954-0.5556z"/> <path d="m134.54 46.04-0.51 0.3785 0.51-0.3785z"/> <path d="m893 47c-0.748-0.2198-0.972-0.482-1.533-1 0.55 0.2935 1.149 0.4995 1.533 1z"/> <path d="M893.948 47.5477L893 47L893.948 47.5477Z"/> <path d="m894.51 47.973-0.564-0.4251 0.564 0.4251z"/> <path d="m895 48.38-0.485-0.4069 0.485 0.4069z"/> <path d="m227.94 56.532 0.524-0.997-0.524 0.997z"/> <path d="m227.94 56.532c-3.137 9.5999-6.095 18.126-6.833 28.276 3.151 6.1009 7.238 11.876 11.224 17.456 6.305 8.824 13.077 17.437 20.769 25.1 7.206 7.18 14.912 13.798 21.704 21.392 13.226 14.788 24.048 31.481 34.034 48.573 1.736-3.936 3.349-8.114 5.497-11.84 4.896-8.496 11.555-15.503 18.938-21.873 1.895-1.634 4.48-4.363 6.786-5.314l0.891-0.281-0.385 0.709c-2.045 3.634-5.3 7.037-7.704 10.519-5.565 8.058-10.251 16.503-14.367 25.379-0.665 1.435-2.233 3.93-2.405 5.386-0.357 3.014 1.038 7.836 1.544 10.997 3.46 21.596 7.695 43.092 13.17 64.268 3.503 13.547 8.651 25.297 15.534 37.421l-0.597 0.259c-4.904 2.223-8.726 6.154-11.639 10.61-4.615-6.4-8.877-13.239-12.227-20.395-3.199-6.836-5.853-14.27-10.014-20.58-2.257-3.421-5.374-6.7-8.58-9.236-1.639-1.296-5.111-3.176-6.246-4.802 4.51 1.014 10.109 4.883 14.285 6.939-0.634-3.745-1.841-7.562-3.197-11.099-2.526-6.589-12.929-9.822-18.85-12.461 5.77 0.75 11.649 3.438 17.349 4.853-0.964-3.647-1.915-7.679-3.701-11.013-4.646-8.667-13.992-13.73-22.135-18.647 7.278 2.303 13.53 6.321 20.635 8.815-3.472-14.812-14.119-26.344-23.341-37.981 6.406 2.916 12.983 10.578 18.205 15.438 0.727-4.029 1.427-7.388 3.411-11.011l0.427-0.773c-8.457-11.772-17.17-23.027-26.795-33.868-9.422-10.613-19.534-20.528-27.868-32.079-7.297-10.112-14.019-20.651-20.135-31.517l-5.572-11.073c-1.217-2.6017-2.393-5.5466-4.332-7.6995-3.373-3.7441-9.618-6.7346-14.623-7.0871l-0.549-0.0286 0.081-0.3456c5.08-1.568 11.159 0.865 15.884 2.5984 4.039-7.5269 5.549-17.702 11.727-23.985z"/> <path d="m824.46 77.003-0.425 0.2417c-4.518 2.5374-11.49 4.5173-14.952 8.3402-1.599 1.7653-2.39 4.3851-3.431 6.5188l-5.387 10.226c-5.204 9.557-10.845 19.134-17.505 27.758-12.17 15.759-27.712 28.723-40.336 44.17-5.128 6.274-11.03 13.958-13.274 21.907-1.622 5.747-2.025 12.106-2.345 18.057 4.586-4.296 9.32-8.324 14.31-12.145 1.587-1.215 3.391-2.93 5.303-3.563-4.903 5.984-10.488 11.641-15.763 17.31-1.135 1.219-4.003 3.574-4.656 4.986-0.505 1.092-0.619 3.366-0.853 4.607l-2.459 12.308 19.002-13.5-19.83 19.87c-0.718 0.822-0.963 3.024-1.199 4.109l-2.463 10.872c4.294-2.522 9.648-6.549 14.268-8.026l-0.595 0.69c-3.178 3.582-8.183 6.704-11.939 9.773-0.789 0.645-2.525 1.726-3.037 2.485-0.589 0.872-0.993 2.909-1.351 3.957l-3.121 9.238 16.513-7.623c-0.96 1.173-2.93 2.259-4.173 3.234l-10.37 7.951c-0.988 0.74-2.944 1.834-3.649 2.798-1.47 2.014-2.319 5.765-3.256 8.197-4.407 11.444-8.61 23.902-17.042 33.035l-1.306-2.839c-2.653-5.187-5.638-6.478-10.896-8.207 11.288-17.633 14.493-40.387 19.053-60.577l11.244-50.959c-6.936-17.443-18.142-33.153-30.492-47.208 2.479 1.116 4.691 3.01 6.841 4.652 7.757 5.924 15.411 13.726 20.966 21.733 3.645 5.254 6.646 11.066 9.881 16.585 1.033-0.975 1.539-2.82 2.111-4.118l3.633-8.097c3.672-7.602 8.295-14.488 13.466-21.14 8.862-11.399 19.862-21.163 30.23-31.148 14.152-13.629 27.522-29.26 36.472-46.865 0.487-0.9577 1.61-2.8475 1.737-3.8367 0.162-1.2692-1.23-4.5889-1.667-5.8867l-5.042-15.663 11.38 18.773c5.446-0.804 10.924-2.7009 16.404-2.9805z"/> <path d="m824.46 77.003 0.532-0.3797-0.532 0.3797z"/> <path d="m340.95 158.02 0.479-0.462-0.479 0.462z"/> <path d="m518.44 268.05-1.197-0.064c-22.801-0.965-48.209 5.286-67.029 18.456-3.377 2.362-6.392 5.263-9.423 8.046-1.977-5.474-3.082-11.935-3.817-17.701-1.648-12.916-1.529-25.568 3.738-37.711 6.393-14.741 20.551-24.329 35.284-29.567 3.299-1.172 4.796-3.815 7.171-6.255 6.638-6.822 15.165-10.905 24.568-12.083 10.395-2.211 24.052 3.653 31.619 10.536 2.308 2.1 4.326 5.273 6.847 7.021 2.839 1.968 7.727 2.827 11.013 4.316 13.042 5.911 24.083 15.556 29.178 29.203 5.711 15.296 3.884 37.048-2.842 51.744-4.697-3.672-9.405-7.627-14.492-10.74-14.959-9.156-33.348-13.543-50.618-15.201z"/> <path d="m277.61 197.55 0.475 0.411-0.475-0.411z"/> <path d="m746.98 198 0.483-0.398-0.483 0.398z"/> <path d="m746.98 198-0.562 0.517 0.562-0.517z"/> <path d="m733.44 250.44 0.515-0.423-0.515 0.423z"/> <path d="m733.44 250.44-0.966 0.606 0.966-0.606z"/> <path d="m296.04 268.06 1 0.495-1-0.495z"/> <path d="m728.94 269.57 0.975-0.553-0.975 0.553z"/> <path d="m375.84 673.63-4.262-73.652c-0.227-66.952 4.911-134.74 22.74-199.47 6.465-23.472 14.329-46.563 24.974-68.499l8.866-17.642c2.82-5.399 4.738-9.471 9.136-13.883 18.595-18.658 49.534-27.468 75.293-27.449 28.75 0.022 57.706 10.916 78.102 31.277-1.551 10.131-4.426 18.502-10.38 26.938-12.842 18.198-33.706 28.312-55.199 32.008-22.713 3.907-46.427-2.322-65.119-15.666-14.281-10.195-23.291-23.706-26.16-41.018l-0.798 0.176c-0.461 0.977-0.879 1.86-0.998 2.947-1.285 11.709 5.813 24.988 13.224 33.469 15.023 17.194 38.329 26.485 60.752 27.966 23.507 1.552 47.899-5.428 65.73-21.151 13.053-11.509 20.215-24.598 21.258-41.981 1.588 1.741 2.596 4.284 3.713 6.38l6.945 13.507c26.048 54.616 38.654 116.38 46.013 176.07 2.348 19.042 3.3 38.151 3.866 57.315 0.523 17.747 0.748 35.567-0.223 53.307l-7.17 69.019c-7.938 57.293-21.113 114.54-48.182 166.05-7.322 13.933-15.503 27.815-25.226 40.219-13.446 17.155-33.947 40.308-56.942 42.885-14.304 1.603-28.056-6.698-38.799-15.251-7.545-6.006-14.005-13.247-20.214-20.587-12.36-14.611-22.015-30.72-30.848-47.631-28.198-53.988-43.256-115.37-50.092-175.65zm213.32-318.88c-5.698 3.752-10.812 8.721-15.673 13.485-23.28 22.817-37.162 51.252-43.657 83-3.185 15.569-4.299 31.282-5.105 47.12l-1.394 52.527 0.408 78.243 0.434-0.375 3.866-73.164c1.855-31.617 3.578-62.768 9.415-93.976 2.383-12.742 5.031-25.372 9.601-37.543 9.638-25.663 25.121-48.427 42.719-69.255l-0.614-0.062zm-156.81-0.233c11.282 11.412 20.183 23.265 28.622 36.913 4.144 6.701 8.176 13.492 11.371 20.706 14.34 32.374 18.825 67.819 21.712 102.77l4.251 61.594 1.623 31.602c0.201 6.098-0.421 12.966 0.805 18.928l0.063-0.28 0.411-48.117-1.719-82.383c-1.551-23.116-3.99-45.945-11.181-68.096-6.292-19.382-17.55-38.855-31.526-53.681-7.11-7.543-15.215-15.093-24.432-19.956zm-15.758 49.233c-1.186 4.191-1.584 8.613-2.16 12.922-1.942 14.524-2.163 29.801-0.321 44.346 2.807 22.16 9.45 42.958 14.944 64.498 7.95 31.163 15.224 62.096 20.514 93.836l15.368 126.17 3.427 36.843c0.558 6.187 0.697 12.796 1.832 18.881l0.183 1.747-5.796-87.343-1.738-34.901-7.415-74.981c-3.518-24.62-8.439-49.207-14.831-73.24l-14.387-46.95c-5.42-18.881-9.07-38.328-9.961-57.968-0.345-7.594-0.657-16.191 0.448-23.702l-0.107-0.162zm191.43 3.5c-0.016 15.218 0.029 30.079-2.303 45.164-6.158 39.833-22.63 77.061-30.225 116.59-11.006 57.28-14.071 115.32-18.18 173.37l-3.236 44.154-0.767 11.714c-0.286 3.428-0.984 7.094-0.474 10.509l0.516-1.925c0.097-4.117 0.726-8.006 1.022-12.085l4.138-43.131 7.563-66.766c4.879-39.991 10.572-79.71 19.159-119.1 7.375-33.833 19.975-66.775 24.671-101.11 2.242-16.392 1.696-33.168-0.442-49.541-0.258-1.977-0.442-6.205-1.442-7.84zm-137.45 396.72 0.419 0.281-0.419-0.281zm81.673 6.281 0.416 1.358 0.334 0.142-0.341-1.346-0.409-0.154zm-0.255 2.5h0.745-0.745z"/> <path d="m592.63 307 0.374 0.998-0.374-0.998z"/> <path d="m396.28 374.56-0.927 3.363-0.803-0.019-33.911-27.27c-8.506-6.994-18.17-13.787-24.565-22.894l1.337-3.756c2.005-4.436 6.73-7.779 11.182-9.418 6.319-0.183 12.904 1.679 18.985 3.247 15.125 3.898 30.08 8.991 44.37 15.286l-15.668 41.461z"/> <path d="m631.81 374.48-2.815 2.308-16.728-44.317c17.219-7.504 35.221-13.318 53.898-15.792l4.587-0.332c5.022-0.286 10.019-0.261 13.886 3.425 1.748 1.666 2.933 4.262 2.771 6.726-0.622 9.496-28.646 27.597-36.873 33.655l-18.726 14.327z"/> <path d="m312.08 456.9c-2.211-0.536-4.873-1.095-6.724-2.494-1.706-1.29-2.361-3.503-2.628-5.535-0.352-2.682 0.428-7.009 2.272-9.092 2.676-3.022 8.681-4.642 12.426-5.947 20.955-7.302 43.737-12.565 65.888-14.13 0.837-0.01 0.346-0.071 1.432 0.392-0.469 5.787-2.628 11.932-3.873 17.627l-4.58 26.646-64.213-7.467z"/> <path d="m715.95 458.02c-1.529 0.955-2.768 1.503-4.565 1.763-5.515 0.795-11.321 0.487-16.891 0.811l-45.799 3.603-9.054-44.788c22.468 1.829 46.005 6.53 67.394 13.469 3.994 1.295 9.167 2.562 12.505 5.118 1.518 1.162 1.936 2.599 2.133 4.449 0.64 6.001-1.974 11.137-5.723 15.575z"/> <path d="m816.96 580.95c-2.156-0.511-4.252-1.835-6.247-2.803-4.849-2.351-10.857-5.81-16.214-6.602l-0.74 0.702-0.01 1.339c2.517 4.652 6.023 8.862 9.353 12.958 6.235 7.671 13.374 15.681 21.357 21.556 7.324 5.39 15.944 9.509 23.856 13.989 11.829 6.698 23.61 13.866 34.746 21.678 7.097 4.979 14.148 10.736 20.458 16.689 4.974 4.693 9.64 9.756 14.855 14.184 3.814 3.239 10.119 2.982 14.913 3.198-2.837 1.601-5.948 2.496-8.872 3.907-5.054 2.439-6.723 10.05-8.511 15.015-0.249-2.405 0.483-16.587 0.245-16.959-0.293-0.459-1.87-1.383-2.37-1.752l-6.64-4.876-51.17-33.578c-12.281-7.285-25.215-13.415-36.487-22.272-8.552-6.721-17.695-14.985-24.443-23.548-4.802-6.093-8.91-12.94-14.001-18.737 0.013 5.335-1e-3 10.756-0.852 16.04-2.253 13.99-8.645 26.3-17.48 37.194l4.753-10.942c4.536-12.081 5.925-26.001 3.898-38.728-1.004-6.302-3.439-12.407-5.547-18.405-7.761-22.081-18.685-43.786-29.711-64.417-6.409-11.991-13.393-23.801-19.021-36.187 3.68-3.487 5.702-7.098 7.076-11.921l0.231-0.821c3.752 2.208 6.781 6.505 9.417 9.885l17.286 24.303c2.851 4.362 5.554 9.654 8.826 13.66 0.815 0.997 3.07 1.875 4.209 2.496l11.798 6.576c2.092 1.245 4.392 2.378 6.054 4.178l-19.431-8.29 5.719 10.346c1.147 2.274 2.434 5.927 4.177 7.742 1.5 1.56 4.64 2.827 6.559 3.848l12.656 7.18c1.311 0.811 3.498 1.866 4.331 3.178l-0.413-0.13-20.378-8.379 5.376 11.431c0.694 1.462 1.451 3.807 2.402 5.058 0.748 0.983 3.543 2.355 4.621 2.978 4.687 2.711 9.274 5.342 13.756 8.405 1.436 0.981 3.705 2.17 4.619 3.668l-0.808-0.276-18.709-8.258 4.847 11.839c0.697 1.821 1.315 4.292 2.326 5.937 0.768 1.249 3.418 2.629 4.674 3.469l12.611 8.604c1.928 1.339 4.607 2.808 6.05 4.651z"/> <path d="m249.01 503.46c4.427-3.04 10.047-4.936 14.843-7.503 0.766-0.411 2.674-1.143 3.226-1.741 1.551-1.683 3.068-5.919 4.277-8.065 6.864-12.186 15.424-28.856 27.713-36.135 2.605 4.657 4.232 6.996 9.18 9.258-9.486 12.581-18.221 27.274-24.424 41.77l-15.779 39.495c-5.084 11.293-12.325 22.036-15.521 34.075-1.945 7.328-2.051 15.267-0.999 22.749 0.963 6.845 2.961 13.232 5.755 19.537 1.437 3.243 3.348 6.263 4.662 9.551-1.949-1.364-3.696-4.466-4.997-6.471-6.153-9.478-10.688-19.617-13.278-30.619-0.666-2.829-0.608-8.221-1.918-10.474l-1.75-0.236c-2.338 1.648-4.46 6.37-6.08 8.847-2.174 3.324-4.557 6.495-7.127 9.522-8.287 9.76-17.799 17.284-28.225 24.582-15.659 10.96-32.64 20.222-49.068 29.962l-31.894 20.734-7.571 5.373c-0.959 0.691-2.543 1.558-3.272 2.422-1.135 1.347-0.755 13.459-0.811 15.87-1.345-1.357-2.34-6.228-3.171-8.247-2.512-6.108-8.1827-7.39-13.833-9.763 3.8348-0.233 10.423-0.094 13.802-1.931 2.713-1.474 5.049-3.945 7.327-6.008l12.173-11.008c7.154-6.307 14.845-12.279 22.652-17.758 11.916-8.363 24.786-15.365 37.367-22.664 9.274-5.381 19.07-11.103 27.063-18.303 6.34-5.711 11.734-13.186 16.317-20.334 1.47-2.292 3.612-5.171 3.768-7.949l-0.917-0.904c-7.572 0.781-13.164 6.582-20.093 8.653l-0.835 0.235c1.204-1.6 3.88-3.105 5.514-4.265 7.747-5.5 15.765-10.716 20.424-19.331l4.96-10.055c-8.139 2.311-15.461 7.434-23.556 9.437l17.086-10.219c2.767-1.641 6.34-3.261 8.7-5.389 2.609-2.352 4.632-7.412 6.307-10.539 0.735-1.373 1.733-2.8 1.859-4.373-0.455-0.196-0.878-0.501-1.366-0.589-2.292-0.418-14.449 6.432-17.989 7.218l-0.401 0.081c1.962-1.853 5.526-3.396 7.907-4.738 5.641-3.177 12.232-6.359 16.926-10.88 1.423-1.37 2.269-3.392 3.226-5.092 2.171-3.855 4.63-7.583 6.121-11.771-4.557 1.143-9.3 3.247-13.866 3.929l-0.414 0.054z"/> <path d="m249.01 503.46-1.008 0.415 1.008-0.415z"/> <path d="m782.9 508.48-0.926-0.527 0.926 0.527z"/> <path d="m229.11 531.96-0.606 0.444 0.606-0.444z"/> <path d="m796.93 532.48-0.944-0.524 0.944 0.524z"/> <path d="m806.85 555.5-0.882-0.51 0.882 0.51z"/> <path d="m207.57 579.98-0.57 0.426 0.57-0.426z"/> <path d="m817.9 581.48-0.944-0.527 0.944 0.527z"/> <path d="m714.87 694.27-3.541 1.286c-3.512 1.094-5.875 0.747-9.305-0.554-6.147-2.331-11.821-6.827-17.426-10.279l-32.347-18.822 4.428-55.04c19.371 14.894 36.934 31.856 51.629 51.447 5.387 7.181 10.83 14.742 13.627 23.349-1.789 4.06-3.224 6.144-7.065 8.613z"/> <path d="m308.77 692.73c-1.914-1.081-3.729-2.504-4.934-4.38-1.157-1.801-1.163-4.833-0.707-6.868 1.23-5.474 6.006-11.312 9.37-15.664 8.845-11.441 18.898-21.592 29.381-31.512 8.096-7.66 16.819-15.701 26.33-21.558l0.731 0.273 2.972 53.055-47.267 25.524c-5.386 2.236-10.273 3.466-15.876 1.13z"/> <path d="m262.5 627.36-0.555-0.912 0.555 0.912z"/> <path d="m678.57 918.03c2.59-3.011 6.358-5.16 9.179-8.046 8.499-8.693 16.274-21.171 21.405-32.237-1.392-2.734-0.936-6.231-0.844-9.214l1.009-19.536 0.726-24.5-0.927-83.229-0.76-30.997c-0.078-3.456-0.874-8.824-0.015-12.05 2.304-0.089 4.69-0.228 6.902-0.927 1.97-0.622 3.744-1.699 4.629-3.636l0.375-0.885c2.449 1.654 6.898 40.696 7.588 46.428 0.358 2.978 4e-3 10.246 1.765 12.288 4.261 4.942 9.902 11.211 12.939 16.92l-12.786-11.601 1.786 16.019c0.152 1.608 0.034 4.921 0.723 6.264 0.542 1.057 2.321 2.483 3.128 3.477 3.109 3.831 7.614 9.375 9.569 13.872l-12.546-11.579 1.2 13.801c0.11 2.021-0.138 5.747 0.549 7.589 0.46 1.233 2.302 3.106 3.11 4.236l7.774 11.651c1.14 1.755 2.836 3.845 3.446 5.822l-0.704-0.591c-4.717-4.021-8.229-9.252-13.293-13.031l0.572 12.879c0.052 2.272-0.174 5.131 0.29 7.33 0.365 1.731 2 3.745 2.944 5.222l7.641 12.224c1.222 1.985 2.864 4.195 3.491 6.44l-0.548-0.522-13.462-15.306-0.32 16.245c-0.033 2.041-0.417 5.011 0.191 6.92 1.523 4.785 5.426 10.023 8.053 14.332 2.012 3.302 5.021 7.174 6.12 10.824l-0.538-0.517c-5.281-5.184-8.69-11.804-14.486-16.809-1.04 0.196-4.418 5.507-5.212 6.699-0.644 0.965-0.447 0.52-0.671 1.622 7.081 23.273 23.264 41.9 36.393 61.791 8.343 12.641 15.638 26.731 21.047 40.863 1.485 3.88 2.881 9.803 5.064 13.157 0.405 0.622 2.164 1.517 2.88 1.904 3.901 2.111 8.927 3.661 12.332 6.501l-16.271-2.82-9.044 9.85c1.37-4.98 3.611-11.57 2.361-16.784-0.695-2.901-2.813-6.142-4.278-8.718l-29.994-47.77c-6.339-9.565-13.283-18.771-19.091-28.679-5.685-9.699-9.965-19.656-13.608-30.262-3.067 3.995-5.472 8.43-8.497 12.45-3.438 4.568-7.414 8.589-11.504 12.565-4.817 4.684-11.017 10.478-17.782 12.061z"/> <path d="m278.57 763.02c2.957-4.226 7.082-8.047 10.761-11.661 0.917-0.901 3.445-2.825 3.953-3.839 0.517-1.032 0.486-4.349 0.651-5.716l2.068-13.005c2.012-11.567 4.599-23.854 9.152-34.707l0.597 0.39c3.336 2.139 5.696 2.184 9.529 2.509l-1.756 80.023 1.311 69.731c0.143 7.867 0.35 15.667-0.49 23.507-0.117 1.099-0.795 3.698-0.623 4.654 0.209 1.155 1.622 3.229 2.184 4.337 5.596 11.026 12.715 21.354 21.341 30.252 4.62 4.766 9.182 8.528 14.795 12.045-19.624-6.859-34.134-22.951-43.4-41.071-7.255 16.073-13.98 31.71-23.395 46.734l-33.851 52.221c-3.895 6.35-8.67 12.89-11.172 19.93-2.205 6.204-0.903 10.574 0.828 16.624-1.213-1.09-2.35-2.23-3.305-3.56-0.991-1.38-4.126-7.9-5.345-8.08l-14.737 1.8c2.944-1.21 6.337-2.19 9.079-3.78 5.448-3.15 7.853-7.506 10.166-13.064 5.392-12.964 10.959-25.446 18.027-37.606 13.958-24.011 30.406-46.072 39.459-72.655l-0.439-0.797-0.933-1.684c-1.493-2.613-1.982-5.757-2.501-8.693-3.638 5.436-7.635 10.465-11.762 15.528-1.237 1.517-2.738 3.895-4.283 5.032 0.68-2.353 2.838-5.12 4.139-7.243l8.73-14.435c0.747-1.265 2.311-3.261 2.681-4.606 0.281-1.023-0.289-3.699-0.338-4.887l-0.635-19.274-10.27 11.996c-1.742 2.099-3.473 4.579-5.534 6.367l-0.72 0.608c0.713-2.24 2.882-4.782 4.203-6.734l8.885-13.08c0.662-0.895 3.156-3.483 3.387-4.419 0.39-1.574 0.021-4.355 0.029-6.037l0.072-15.071-15.784 16.061-0.314 0.271c0.649-2.279 2.885-4.59 4.35-6.451l8.869-11.251c0.844-1.075 2.536-2.719 3.076-3.917 0.36-0.798 0.043-3.916 0.056-4.91 0.072-5.688 0.109-11.351 0.669-17.018-3.652 2.814-6.917 6.117-10.275 9.272-1.569 1.475-3.176 3.298-5.003 4.438l-0.687 0.413c0.867-2.061 3.11-4.075 4.555-5.788l8.143-9.585c0.725-0.788 3.188-2.912 3.513-3.79 0.518-1.4 0.129-4.746 0.267-6.424l2.116-21.169-13.384 10.81-0.705 0.454z"/> <path d="m278.57 763.02-0.538 0.51 0.538-0.51z"/> <path d="m278.03 763.53-0.493 0.508 0.493-0.508z"/> <path d="m277.54 764.04-0.494 0.506 0.494-0.506z"/> <path d="m277.05 764.55-0.436 0.451 0.436-0.451z"/> <path d="m743 768.89-0.455-0.477 0.455 0.477z"/> <path d="m745.47 797.03-0.507-0.583 0.507 0.583z"/> <path d="m745.88 797.5-0.414-0.471 0.414 0.471z"/> <path d="m274.07 798.51-0.524 0.525 0.524-0.525z"/> <path d="m273.54 799.04-0.443 0.458 0.443-0.458z"/> <path d="m273.01 827.94-0.437 0.552 0.437-0.552z"/> <path d="m748.98 828.51-0.481-0.549 0.481 0.549z"/> <path d="m749.55 829.44-0.577-0.929 0.577 0.929z"/> <path d="m750.02 829.97-0.47-0.529 0.47 0.529z"/> <path d="m750.4 830.47-0.372-0.497 0.372 0.497z"/> <path d="m272.53 856.95-0.508 0.566 0.508-0.566z"/> <path d="m272.03 857.51-0.524 0.853 0.524-0.853z"/> <path d="m749.88 859-0.446-0.561 0.446 0.561z"/> <path d="m274.48 888.42-0.474 0.579 0.474-0.579z"/> <path d="m274.01 889-0.392 0.497 0.392-0.497z"/> <path d="m749.96 891.54-0.485-0.611 0.485 0.611z"/> <path d="m750.38 892-0.423-0.457 0.423 0.457z"/> <path d="m678.57 918.03-0.573 0.444 0.573-0.444z"/> <path d="m678 918.48-0.893 0.493 0.893-0.493z"/> <path d="m514.31 1008.6-2.818 15.94-14.642-91.06c10.15 3.733 18.504 3.961 28.876 0.782l-11.416 74.338z"/> </svg>